Coordinates
version=1
nRows=43
nColumns=12
inDegrees=yes

Units are S.I. units (second, meters, Newtons, ...)
Angles are in degrees

endheader
time	SC_y	SC_z	SC_x	AC_y	AC_z	AC_x	GH_y	GH_z	GH_yy	EL_x	PS_y
       0.0              -57.43          9.189          7.109          40.14          3.269          -17.3         -48.62          44.66         -83.42          25.11          137.6
   0.04263              -57.43          9.193           7.12          40.14          3.266          -17.3          -48.6          44.66         -83.41          25.12          137.6
   0.08527              -57.43          9.197          7.131          40.14          3.263          -17.3         -48.57          44.66         -83.41          25.14          137.7
    0.1279              -57.43          9.201          7.144          40.14           3.26          -17.3         -48.55          44.65          -83.4          25.16          137.7
    0.1705              -57.43          9.206          7.157          40.14          3.256          -17.3         -48.52          44.65         -83.39          25.18          137.7
    0.2132              -57.43          9.211           7.17          40.14          3.253          -17.3         -48.49          44.65         -83.38           25.2          137.7
    0.2558              -57.43          9.216          7.185          40.14          3.249         -17.31         -48.46          44.64         -83.37          25.22          137.7
    0.2984              -57.43          9.222          7.201          40.14          3.245         -17.31         -48.43          44.64         -83.37          25.24          137.7
    0.3411              -57.43          9.228          7.218          40.14          3.241         -17.31         -48.39          44.64         -83.36          25.26          137.7
    0.3837              -57.43          9.235          7.236          40.14          3.236         -17.31         -48.36          44.63         -83.35          25.29          137.7
    0.4263              -57.43          9.242          7.256          40.14          3.231         -17.31         -48.32          44.63         -83.33          25.32          137.7
     0.469              -57.43           9.25          7.277          40.14          3.226         -17.31         -48.27          44.62         -83.32          25.35          137.7
    0.5116              -57.43          9.258          7.299          40.14           3.22         -17.31         -48.23          44.62         -83.31          25.38          137.7
    0.5542              -57.43          9.267          7.324          40.14          3.214         -17.31         -48.18          44.61          -83.3          25.42          137.7
    0.5969              -57.43          9.276           7.35          40.14          3.207         -17.31         -48.12           44.6         -83.28          25.45          137.7
    0.6395              -57.43          9.287          7.379          40.13            3.2         -17.31         -48.06           44.6         -83.26           25.5          137.7
    0.6821              -57.43          9.298           7.41          40.13          3.192         -17.31          -48.0          44.59         -83.25          25.54          137.7
    0.7248              -57.43          9.311          7.444          40.13          3.183         -17.31         -47.93          44.58         -83.23          25.59          137.7
    0.7674              -57.43          9.324          7.481          40.13          3.173         -17.31         -47.85          44.57          -83.2          25.64          137.7
      0.81              -57.43          9.339          7.522          40.13          3.163         -17.31         -47.77          44.56         -83.18           25.7          137.7
    0.8527              -57.43          9.355          7.566          40.13          3.152         -17.31         -47.67          44.55         -83.16          25.77          137.8
    0.8953              -57.43          9.373          7.615          40.13          3.139         -17.31         -47.57          44.54         -83.13          25.84          137.8
    0.9379              -57.44          9.393           7.67          40.13          3.125         -17.31         -47.46          44.53          -83.1          25.91          137.8
    0.9805              -57.44          9.414           7.73          40.12           3.11         -17.32         -47.34          44.51         -83.06           26.0          137.8
     1.023              -57.44          9.439          7.796          40.12          3.093         -17.32          -47.2           44.5         -83.02           26.1          137.8
     1.066              -57.44          9.466          7.871          40.12          3.074         -17.32         -47.05          44.48         -82.98           26.2          137.8
     1.108              -57.44          9.496          7.954          40.12          3.052         -17.32         -46.87          44.46         -82.93          26.32          137.9
     1.151              -57.44           9.53          8.048          40.12          3.028         -17.32         -46.68          44.44         -82.88          26.46          137.9
     1.194              -57.44          9.569          8.154          40.11          3.001         -17.32         -46.46          44.41         -82.82          26.61          137.9
     1.236              -57.45          9.613          8.275          40.11           2.97         -17.33         -46.21          44.38         -82.75          26.78          137.9
     1.279              -57.45          9.663          8.412           40.1          2.935         -17.33         -45.93          44.35         -82.67          26.98          138.0
     1.322              -57.45           9.72           8.57           40.1          2.895         -17.33          -45.6          44.31         -82.58          27.21          138.0
     1.364              -57.46          9.786          8.752          40.09          2.848         -17.34         -45.23          44.27         -82.47          27.47          138.1
     1.407              -57.46          9.863          8.964          40.09          2.794         -17.34         -44.79          44.22         -82.35          27.77          138.1
      1.45              -57.46          9.953          9.211          40.08           2.73         -17.35         -44.28          44.16         -82.21          28.13          138.2
     1.492              -57.47          10.06          9.503          40.07          2.656         -17.35         -43.67          44.09         -82.04          28.55          138.2
     1.535              -57.48          10.19           9.85          40.06          2.567         -17.36         -42.96           44.0         -81.84          29.05          138.3
     1.577              -57.48          10.34          10.27          40.05           2.46         -17.37          -42.1           43.9          -81.6          29.65          138.4
      1.62              -57.49          10.52          10.77          40.03          2.332         -17.38         -41.06          43.78         -81.31          30.37          138.6
     1.663               -57.5          10.74          11.38          40.02          2.174         -17.39         -39.79          43.63         -80.95          31.25          138.7
     1.705              -57.52          11.02          12.14          39.99           1.98          -17.4         -38.22          43.45         -80.52          32.34          138.9
     1.748              -57.53          11.36          13.09          39.97          1.738         -17.42         -36.27          43.22         -79.97           33.7          139.1
     1.791              -57.56           11.8          14.28          39.93          1.433         -17.45         -33.81          42.94         -79.28          35.42          139.4
